<?xml version="1.0" encoding="utf-8"?>
<!-- Generator: Adobe Illustrator 25.1.0, SVG Export Plug-In . SVG Version: 6.00 Build 0)  -->
<svg version="1.1" id="Layer_1" xmlns="http://www.w3.org/2000/svg" xmlns:xlink="http://www.w3.org/1999/xlink" x="0px" y="0px"
	 viewBox="0 0 31.99 25.04" style="enable-background:new 0 0 31.99 25.04;" xml:space="preserve">
<style type="text/css">
	.st0{opacity:0.7;enable-background:new    ;}
</style>
<g>
	<polygon points="24.94,6 22.09,5.68 22.17,8.14 25.02,8.47 	"/>
	<polygon points="22.48,12.25 22.65,18.03 25.5,18.35 25.33,12.58 	"/>
	<polygon points="31.74,11.8 31.57,6.21 28.72,5.89 28.89,11.48 	"/>
	<polygon points="31.75,15.1 30.88,13.23 28.03,12.91 28.9,14.78 29.14,22.68 31.99,23 	"/>
	<polygon points="2.38,7.51 2.68,17.36 5.53,17.69 5.23,7.83 	"/>
	<polygon points="15.43,11.39 12.58,11.07 12.66,13.59 15.51,13.92 	"/>
	<polygon points="12.77,17.08 12.87,20.48 15.72,20.8 15.62,17.4 	"/>
</g>
<path class="st0" d="M10.5,9.52l2.85,0.32h0.01c0.05,0,0.1-0.03,0.12-0.08c0.02-0.05,0-0.11-0.05-0.15L3.05,2.43
	C3.03,2.42,3.01,2.41,2.99,2.41L0.14,2.09C0.08,2.08,0.03,2.12,0.01,2.17c-0.02,0.05,0,0.11,0.05,0.15L10.44,9.5
	C10.46,9.51,10.48,9.52,10.5,9.52z"/>
<path class="st0" d="M5.59,17.58c-0.01-0.01-0.03-0.01-0.05-0.02l-2.85-0.32c-0.06-0.01-0.11,0.03-0.13,0.08s0,0.12,0.06,0.15
	l6.43,3.72c0.01,0.01,0.03,0.01,0.05,0.02l2.85,0.32h0.01c0.05,0,0.1-0.03,0.12-0.09c0.02-0.06,0-0.12-0.06-0.15L5.59,17.58z"/>
<path class="st0" d="M12.46,11.1c0.01,0.05,0.06,0.08,0.11,0.09l2.85,0.32h0.01c0.03,0,0.06-0.01,0.08-0.03l5.65-4.89
	c0.04-0.03,0.05-0.08,0.04-0.13c-0.01-0.05-0.06-0.08-0.11-0.09l-2.85-0.32c-0.04-0.01-0.07,0.01-0.1,0.03l-5.65,4.89
	C12.46,11,12.45,11.05,12.46,11.1z"/>
<path class="st0" d="M18.43,12.08c-0.04-0.01-0.07,0.01-0.1,0.03l-5.65,4.88c-0.04,0.03-0.05,0.08-0.04,0.13s0.06,0.08,0.11,0.09
	l2.85,0.32h0.01c0.03,0,0.06-0.01,0.08-0.03l5.65-4.88c0.04-0.03,0.05-0.08,0.04-0.13c-0.01-0.05-0.06-0.08-0.11-0.09L18.43,12.08z"
	/>
<path class="st0" d="M17.98,19.59c-0.03-0.01-0.07,0.01-0.1,0.03l-5.65,4.88c-0.04,0.03-0.05,0.08-0.04,0.13s0.06,0.08,0.11,0.09
	l2.85,0.32h0.01c0.03,0,0.06-0.01,0.08-0.03l5.65-4.88c0.04-0.03,0.05-0.08,0.04-0.13c-0.01-0.05-0.06-0.08-0.11-0.09L17.98,19.59z"
	/>
<path class="st0" d="M28.65,5.99c0.02,0.01,0.04,0.02,0.06,0.02l2.85,0.32h0.01c0.05,0,0.1-0.03,0.12-0.08
	c0.02-0.05,0-0.11-0.04-0.15l-8.06-5.76c-0.02-0.01-0.04-0.02-0.06-0.02L20.68,0c-0.06-0.01-0.11,0.03-0.13,0.08
	c-0.02,0.05,0,0.11,0.04,0.15L28.65,5.99z"/>
<path class="st0" d="M31.76,11.68l-2.49-0.28c0-0.01,0.01,0,0.02-0.01c0.02-0.05,0-0.11-0.05-0.15l-4.15-2.87
	c-0.02-0.01-0.04-0.02-0.06-0.02l-2.85-0.32c-0.06-0.01-0.11,0.03-0.13,0.08c-0.02,0.05,0,0.11,0.05,0.15l4.15,2.87
	c0.02,0.01,0.04,0.02,0.06,0.02l2.48,0.28l-0.86,1.42c-0.02,0.04-0.02,0.08-0.01,0.12c0.02,0.04,0.06,0.06,0.1,0.07l2.85,0.32h0.01
	c0.04,0,0.08-0.02,0.11-0.06l0.86-1.43c0.02-0.04,0.02-0.08,0.01-0.12C31.84,11.71,31.8,11.68,31.76,11.68z"/>
<polygon points="8.93,11.35 9.23,21.21 12.08,21.54 11.78,11.68 "/>
</svg>
